<?xml version="1.0" encoding="utf-8"?>
<!-- Generator: Adobe Illustrator 24.1.1, SVG Export Plug-In . SVG Version: 6.00 Build 0)  -->
<svg version="1.1" id="Layer_1" xmlns="http://www.w3.org/2000/svg" xmlns:xlink="http://www.w3.org/1999/xlink" x="0px" y="0px"
	 viewBox="0 0 512 512" style="enable-background:new 0 0 512 512;" xml:space="preserve">
<style type="text/css">
	.st0{fill:#aac8e4;}
</style>
<g id="XMLID_1_">
	<path id="XMLID_3_" class="st0" d="M475.7,475.7c0,20.5-16.6,36.3-36.3,36.3H72.6c-20.5,0-36.3-16.6-36.3-36.3v-36.3
		c0-96.2,146.7-146.7,146.7-146.7s8.7-15,0-36.3c-30.8-22.9-34.7-58.4-36.3-146.7C153,21.3,215.4,0,256.4,0s103.3,21.3,109.7,109.7
		c-2.4,88.4-5.5,123.9-36.3,146.7c-8.7,21.3,0,36.3,0,36.3s145.9,49.7,145.9,145.9V475.7z"/>
</g>
</svg>
